<?xml version="1.0" encoding="UTF-8"?>
<svg id="Layer_1" data-name="Layer 1" xmlns="http://www.w3.org/2000/svg" viewBox="0 0 272.57 197.76">
  <defs>
    <style>
      .cls-1 {
        fill: #a6d0ff;
      }

      .cls-2 {
        font-family: MyriadPro-Regular, 'Myriad Pro';
        font-size: 54.78px;
      }

      .cls-3 {
        letter-spacing: .03em;
      }

      .cls-3, .cls-4, .cls-5, .cls-6 {
        fill: #0078ff;
      }

      .cls-7 {
        fill: #7fbbff;
      }

      .cls-8 {
        fill: #3393ff;
      }

      .cls-5 {
        letter-spacing: .02em;
      }

      .cls-6, .cls-9 {
        letter-spacing: .03em;
      }

      .cls-10 {
        fill: #59a7ff;
      }
    </style>
  </defs>
  <g>
    <path class="cls-4" d="M44.56,108.62c2.44,0,4.85,.21,7.24,.6,2.41,.39,4.76,1,7.05,1.75,2.29,.78,4.52,1.75,6.67,2.9,2.14,1.15,4.19,2.44,6.12,3.92,1.93,1.48,3.74,3.11,5.4,4.88,1.66,1.78,3.17,3.68,4.52,5.7,1.36,2.02,2.53,4.13,3.56,6.36,.99,2.2,1.84,4.49,2.47,6.84l-21.5,5.82c-.3-1.18-.72-2.32-1.24-3.41-.51-1.12-1.08-2.17-1.78-3.17-.66-.99-1.42-1.96-2.26-2.83-.84-.88-1.72-1.69-2.68-2.44-.96-.72-1.99-1.39-3.04-1.96-1.08-.57-2.17-1.06-3.35-1.45-1.15-.39-2.32-.69-3.53-.87-1.21-.21-2.41-.3-3.62-.3l-.03-22.34h0Z"/>
    <path class="cls-8" d="M86.96,139.4c.75,2.32,1.3,4.67,1.66,7.08,.36,2.41,.54,4.82,.51,7.27-.03,2.44-.27,4.85-.69,7.23s-1.06,4.73-1.84,7.03c-.81,2.29-1.81,4.49-2.96,6.63-1.18,2.14-2.5,4.16-4.01,6.06-1.51,1.9-3.14,3.68-4.94,5.34-1.78,1.66-3.71,3.14-5.73,4.46l-12.18-18.67c1.02-.66,1.96-1.42,2.86-2.23,.9-.81,1.72-1.72,2.47-2.65,.75-.96,1.42-1.96,1.99-3.04,.57-1.06,1.08-2.17,1.48-3.31s.72-2.32,.93-3.53c.21-1.21,.33-2.41,.33-3.62,.03-1.21-.06-2.41-.24-3.62-.18-1.21-.45-2.38-.84-3.53l21.2-6.91h0Z"/>
    <path class="cls-10" d="M70.76,189.24c-1.96,1.42-4.04,2.68-6.21,3.77s-4.43,1.99-6.75,2.71c-2.32,.72-4.67,1.24-7.08,1.6-2.41,.33-4.83,.48-7.27,.42-2.44-.06-4.85-.33-7.24-.78-2.38-.45-4.73-1.11-6.99-1.93-2.29-.84-4.49-1.87-6.6-3.04-2.11-1.21-4.13-2.56-6-4.07l13.99-17.34c.94,.75,1.96,1.45,3.01,2.05,1.06,.6,2.17,1.12,3.29,1.54,1.15,.42,2.32,.75,3.5,.96,1.21,.24,2.41,.36,3.62,.39s2.41-.03,3.62-.21c1.21-.18,2.38-.42,3.56-.78,1.15-.36,2.29-.81,3.38-1.36,1.08-.54,2.11-1.18,3.11-1.9l13.08,17.96h0Z"/>
    <path class="cls-7" d="M18.39,189.24c-1.96-1.42-3.8-3.01-5.52-4.73-1.72-1.72-3.26-3.59-4.67-5.58-1.42-1.99-2.65-4.07-3.71-6.27s-1.93-4.43-2.62-6.78c-.69-2.32-1.21-4.71-1.51-7.12-.3-2.41-.42-4.82-.33-7.27,.09-2.44,.39-4.82,.87-7.21,.48-2.38,1.15-4.7,2.02-6.99l20.83,7.93c-.42,1.15-.78,2.29-1.02,3.5-.24,1.18-.39,2.38-.42,3.62-.06,1.21,0,2.41,.15,3.62s.39,2.38,.75,3.56c.36,1.18,.78,2.29,1.33,3.38s1.15,2.14,1.84,3.14,1.48,1.93,2.32,2.77c.84,.88,1.78,1.66,2.74,2.38l-13.06,18.06h0Z"/>
    <path class="cls-1" d="M2.2,139.4c.72-2.23,1.63-4.37,2.68-6.45,1.06-2.08,2.29-4.07,3.65-5.97,1.39-1.9,2.89-3.68,4.55-5.31,1.66-1.66,3.44-3.17,5.31-4.55,1.9-1.39,3.89-2.59,5.97-3.65,2.08-1.05,4.22-1.96,6.45-2.68,2.23-.72,4.49-1.27,6.78-1.63,2.32-.36,4.64-.54,6.96-.54v22.28c-1.18,0-2.32,.09-3.5,.27-1.15,.18-2.29,.45-3.41,.81-1.12,.36-2.2,.81-3.23,1.33-1.06,.54-2.02,1.15-2.99,1.84-.94,.69-1.84,1.45-2.65,2.26s-1.6,1.72-2.26,2.65c-.69,.94-1.3,1.93-1.84,2.99-.54,1.06-.96,2.11-1.33,3.23l-21.16-6.88h0Z"/>
  </g>
  <text class="cls-2" transform="translate(109.48 172.51) scale(.73 1)"><tspan class="cls-3" x="0" y="0">S</tspan><tspan class="cls-5" x="28.49" y="0">t</tspan><tspan class="cls-6" x="47.93" y="0">ock</tspan><tspan class="cls-9" x="133.17" y="0">egy</tspan></text>
</svg>